#!OML:ASF H:\Terrain\Walking\May29\JustinRory\Justin.ASF
:FULLY-SPECIFIED
:DEGREES
293
root 12.7091 17.3976 10.7263 -343.696 -52.7313 -2.05453
lowerback 21.6753 1.55507 -0.134098
upperback 8.69059 1.70884 1.96716
thorax -2.71002 0.654245 1.78496
lowerneck -13.5083 -8.60768 -13.6316
upperneck 21.563 -10.7792 7.91292
head 10.3139 -5.26306 3.56936
rclavicle -3.93594e-014 -6.75868e-015
rhumerus -84.2563 -47.734 42.3395
rradius 34.5973
rwrist -59.7794
rhand 265.868 78.4556
rfingers 7.12502
rthumb 58.6397 -204.746
lclavicle -3.93594e-014 -6.75868e-015
lhumerus -46.5718 26.8645 53.4259
lradius 37.9221
lwrist -0.0638139
lhand -7.63906 34.8697
lfingers 7.12502
lthumb 18.2561 64.033
rfemur -17.791 -4.85066 17.1397
rtibia 33.0575
rfoot -25.7441 -0.830453
rtoes -13.0165
lfemur -48.2153 17.9666 -10.3849
ltibia 53.7892
lfoot -14.5029 -9.29284
ltoes -21.2174
294
root 12.6791 17.3828 10.8136 -343.622 -52.7632 -2.21176
lowerback 21.5563 1.48151 -0.609515
upperback 8.8363 1.51627 2.05038
thorax -2.50014 0.544337 2.1925
lowerneck -13.7838 -8.55292 -13.5898
upperneck 21.6009 -10.7295 8.1217
head 10.3829 -5.20839 3.6369
rclavicle 8.90555e-014 -3.29983e-014
rhumerus -84.8533 -48.993 43.3065
rradius 34.4125
rwrist -59.1341
rhand 260.625 80.0437
rfingers 7.12502
rthumb 57.4737 -202.484
lclavicle 8.90555e-014 -3.29983e-014
lhumerus -47.2292 27.6827 52.8385
lradius 37.0479
lwrist 1.24109
lhand -8.07215 35.6704
lfingers 7.12502
lthumb 17.8394 64.8721
rfemur -17.3139 -4.7548 17.094
rtibia 32.6707
rfoot -25.8131 -1.61381
rtoes -15.7568
lfemur -47.6888 17.6009 -9.33841
ltibia 52.6992
lfoot -12.8323 -8.41937
ltoes -21.0926
295
root 12.6483 17.3694 10.8937 -343.493 -52.7303 -2.18924
lowerback 21.3959 1.44085 -1.05436
upperback 8.81979 1.38198 2.03196
thorax -2.44083 0.470939 2.45879
lowerneck -13.758 -8.58483 -13.3961
upperneck 21.5505 -10.8461 8.22143
head 10.3671 -5.23673 3.624
rclavicle -7.95139e-016 6.48038e-014
rhumerus -85.3287 -49.8117 43.858
rradius 34.2388
rwrist -58.8014
rhand 255.995 81.4811
rfingers 7.12502
rthumb 56.6375 -200.828
lclavicle -7.95139e-016 6.48038e-014
lhumerus -47.7385 27.6762 52.5138
lradius 36.2855
lwrist 2.6649
lhand -8.08491 36.3765
lfingers 7.12502
lthumb 17.8271 65.5794
rfemur -16.8888 -4.08299 16.855
rtibia 32.2197
rfoot -26.0988 -2.09629
rtoes -15.0447
lfemur -47.4693 17.2106 -8.56405
ltibia 51.6477
lfoot -10.7056 -7.24863
ltoes -19.5525
296
root 12.6205 17.3649 10.9798 -343.545 -52.5366 -1.95844
lowerback 21.4195 1.33532 -1.24896
upperback 8.68418 1.21391 1.90371
thorax -2.59175 0.393095 2.4704
lowerneck -13.4441 -8.7746 -13.4124
upperneck 21.3777 -11.1991 8.46429
head 10.3049 -5.3825 3.66676
rclavicle 3.49861e-014 -2.82274e-014
rhumerus -85.5003 -49.9763 43.377
rradius 34.477
rwrist -59.0536
rhand 254.741 82.9113
rfingers 7.12502
rthumb 56.6819 -199.807
lclavicle 3.49861e-014 -2.82274e-014
lhumerus -48.2118 27.455 52.2496
lradius 35.4963
lwrist 3.53517
lhand -8.25089 37.1541
lfingers 7.12502
lthumb 17.6674 66.3715
rfemur -16.4152 -3.72112 16.5189
rtibia 31.7431
rfoot -26.3245 -2.47191
rtoes -13.6941
lfemur -47.3841 16.7191 -8.08996
ltibia 50.717
lfoot -8.33585 -5.60524
ltoes -15.2529
297
root 12.5968 17.3598 11.0734 -343.63 -52.1788 -1.79348
lowerback 21.6129 1.16545 -1.28831
upperback 8.53783 0.994197 1.86502
thorax -2.83545 0.291842 2.50141
lowerneck -13.2839 -8.97051 -13.7351
upperneck 21.4551 -11.5052 8.7676
head 10.3828 -5.52145 3.78329
rclavicle 1.55052e-014 -2.54444e-014
rhumerus -85.9179 -50.2606 43.4116
rradius 34.6424
rwrist -58.8485
rhand 251.18 84.2708
rfingers 7.12502
rthumb 56.6342 -198.561
lclavicle 1.55052e-014 -2.54444e-014
lhumerus -48.7161 27.3683 52.1217
lradius 34.7012
lwrist 3.93719
lhand -8.55753 37.9146
lfingers 7.12502
lthumb 17.3723 67.1583
rfemur -15.8412 -3.6842 16.2823
rtibia 31.2167
rfoot -26.3081 -2.89838
rtoes -12.7704
lfemur -47.3513 16.0791 -7.63624
ltibia 49.9307
lfoot -6.5232 -3.77237
ltoes -12.0756
298
root 12.5697 17.3435 11.17 -343.327 -51.7947 -2.05955
lowerback 21.5893 0.947098 -1.3073
upperback 8.49144 0.721062 2.00858
thorax -2.86044 0.157157 2.73058
lowerneck -13.2932 -9.03858 -14.0862
upperneck 21.5848 -11.5663 8.91066
head 10.4735 -5.56261 3.88078
rclavicle 2.98177e-015 -2.04748e-014
rhumerus -86.1595 -51.0476 43.7714
rradius 34.4451
rwrist -58.0512
rhand 246.577 85.5717
rfingers 7.12502
rthumb 56.7854 -197.339
lclavicle 2.98177e-015 -2.04748e-014
lhumerus -49.3022 27.7475 51.9456
lradius 33.8808
lwrist 3.6826
lhand -8.37527 38.3941
lfingers 7.12502
lthumb 17.5477 67.6222
rfemur -15.2206 -3.49011 16.3025
rtibia 30.6179
rfoot -26.3544 -3.12608
rtoes -10.9198
lfemur -47.4624 15.5979 -7.034
ltibia 49.299
lfoot -5.36401 -1.99573
ltoes -8.94975
